# xmcd
#
# Track frame offsets: 
#        150
#        15765
#        28067
#        39952
#        64969
#        82531
#        97865
#        114412
#        131093
#        146746
#        162956
#        174715
#
# Disc length: 2516 seconds
#
# Revision: 1
# Processed by: cddbd v1.5.2PL0 Copyright (c) Steve Scherf et al.
# Submitted via: ExactAudioCopy v1.1
#
DISCID=8c09d20c
DTITLE=The 13th Floor Elevators - A Love That's Sound
DYEAR=1968
DGENRE=Psychedelic Rock
TTITLE0=Wait For My Love (mono)
TTITLE1=It's You (acetate) (mono)
TTITLE2=May The Circle Remain unbroken (original mix) (stereo)
TTITLE3=Livin' On (take 1 - original vocals) (stereo)
TTITLE4=Never Another (take 8) (stereo)
TTITLE5=Dr Doom (take 6) (stereo)
TTITLE6=Sweet Surprise (take 5 - backing track) (stereo)
TTITLE7=Moon Song (take 1 - backing track) (stereo)
TTITLE8=Livin' On (take 1 edited - overdubbed lead vocals) (stereo)
TTITLE9=Never Another (rehearsal) (mono)
TTITLE10=It's You (rehearsal - inst) (mono)
TTITLE11=Moon Song (rehearsal) (mono)
EXTD=
EXTT0=
EXTT1=
EXTT2=
EXTT3=
EXTT4=
EXTT5=
EXTT6=
EXTT7=
EXTT8=
EXTT9=
EXTT10=
EXTT11=
PLAYORDER=
